<?xml version="1.0" encoding="UTF-8"?>
<svg width="45.5mm" height="19.47mm" version="1.1" viewBox="0 0 45.5 19.47" xmlns="http://www.w3.org/2000/svg" xmlns:dc="http://purl.org/dc/elements/1.1/" xmlns:rdf="http://www.w3.org/1999/02/22-rdf-syntax-ns#">
 <defs>
  <clipPath id="vlpa">
   <path d="m688.3 21.2h123.4v60.54h-123.4z"/>
  </clipPath>
 </defs>
 <title>FIA World Endurance Championship logo</title>
 <metadata>
  <rdf:RDF>
    <dc:format>image/svg+xml</dc:format>
    <dc:type rdf:resource="http://purl.org/dc/dcmitype/StillImage"/>
    <dc:title/>
  </rdf:RDF>
 </metadata>
 <g transform="translate(-80.07 -161.2)">
  <g transform="matrix(.3528 0 0 -.3528 -161.8 190)">
   <g clip-path="url(#vlpa)">
    <g transform="translate(751.3 66.53)">
     <path d="m0 0c0.22 0.192 0.442 0.373 0.664 0.549 3.324 2.911 11.22 8.282 22.78 8.696 0.086 3e-3 0.103-0.074 5e-3 -0.091-2.194-0.37-8.577-1.683-13.92-5.071 2.018 0.39 3.602 0.356 4.289 0.356h8.354c1.736 0 4.426 0.112 6.139 1.5 3.944 3.477 8.51 5.209 8.51 5.209-24.47 4.07-35.45-4.165-43.99-11.26-8.539-7.097-16.98-8.732-22.13-8.6l3.77 8.489c-14.34-10.58-25.95-8.707-25.95-8.707 4.551 13.05 19.92 16.47 19.92 16.47-0.711 0.374-6.2 1.322-13.74-1.406-12.6-4.85-17.29-14.65-17.29-21.32 12.15-1.504 21 0.318 26.65 4.436 0.05 0.036 0.096 2e-3 0.066-0.064-0.029-0.066-2.13-4.508-2.13-4.508 7.856-1.373 18.9-1.637 28.59 6.99 1.748 1.546 4.788 4.303 9.416 8.335" style="fill:#042b60"/>
    </g>
    <g transform="translate(753.9 65.08)">
     <path d="m0 0c-2.903-2.394-3.987-3.312-3.987-3.312h19.41c1.785 0 3.759-0.215 4.66 2.128 0.879 2.286 1.829 3.55 1.829 3.55h-13.86c-2.056 0-5.248-0.048-8.059-2.366" style="fill:#042b60"/>
    </g>
    <g transform="translate(744.2 55.51)">
     <path d="m0 0c-2.904-2.69-4.74-3.722-4.74-3.722h25.8c1.785 0 3.745-0.055 4.858 2.474 1.112 2.53 1.682 3.906 1.682 3.906h-19.54c-2.056 0-5.247-0.053-8.058-2.658" style="fill:#042b60"/>
    </g>
    <g transform="translate(779.6 67.63)">
     <path d="m0 0c-6.827-9.646 0.725-17.58 12.64-16.47 4.653 0.6 8.528 2.371 9.875 6.791 0 0-4.059-1.998-9.112-1.998s-7.939 2.074-7.939 5.054 2.925 9.249 18.77 10.21c5.842 0.452 5.92 1.735 7.877 5.944-5.824 0.849-24.23 1.182-32.11-9.524" style="fill:#042b60"/>
    </g>
    <g transform="translate(688.7 42.8)">
     <path d="m0 0h4.147v-1.073h-2.91v-1.284h2.42v-1.066h-2.42v-2.023h-1.237z" style="fill:#042b60"/>
    </g>
    <path d="m694.5 42.8h1.237v-5.446h-1.237z" style="fill:#042b60"/>
    <g transform="translate(699.3 39.48)">
     <path d="m0 0h1.501l-0.754 1.82zm-0.871-2.124h-1.362l2.412 5.446h1.143l2.428-5.446h-1.362l-0.466 1.12h-2.334z" style="fill:#042b60"/>
    </g>
    <g transform="translate(706.2 42.8)">
     <path d="m0 0h1.338l1.284-3.898 1.221 3.898h1.237l1.237-3.889 1.268 3.889h1.338l-2.014-5.446h-1.222l-1.237 3.696-1.214-3.696h-1.221z" style="fill:#042b60"/>
    </g>
    <g transform="translate(717.4 39.15)">
     <path d="m0 0c0-0.545 0.568-0.832 1.276-0.832 0.7 0 1.268 0.287 1.268 0.832v1.859c0 0.545-0.568 0.833-1.268 0.833-0.708 0-1.276-0.288-1.276-0.833zm-1.245 1.953c0 1.12 1.128 1.805 2.521 1.805 1.384 0 2.513-0.685 2.513-1.805v-2.046c0-1.121-1.129-1.813-2.513-1.813-1.393 0-2.521 0.692-2.521 1.813z" style="fill:#042b60"/>
    </g>
    <g transform="translate(724.3 37.35)">
     <path d="m0 0h-1.237v5.446h2.559c1.408 0 2.28-0.622 2.28-1.735v-0.28c0-0.701-0.452-1.276-1.291-1.494l1.516-1.937h-1.579l-1.478 1.937v0.809h0.552c0.677 0 1.043 0.241 1.043 0.77v0.102c0 0.529-0.366 0.754-1.043 0.754h-1.322z" style="fill:#042b60"/>
    </g>
    <g transform="translate(729.8 42.8)">
     <path d="m0 0h1.237v-4.38h2.894v-1.066h-4.131z" style="fill:#042b60"/>
    </g>
    <g transform="translate(738 38.42)">
     <path d="m0 0c0.677 0 1.05 0.288 1.05 0.832v1.65c0 0.544-0.373 0.824-1.05 0.824h-1.315v-3.306zm-2.552 4.38h2.552c1.416 0 2.287-0.7 2.287-1.805v-1.836c0-1.105-0.871-1.805-2.287-1.805h-2.552z" style="fill:#042b60"/>
    </g>
    <g transform="translate(744.2 42.8)">
     <path d="m0 0h4.131v-1.073h-2.894v-1.082h2.412v-1.058h-2.412v-1.167h2.964v-1.066h-4.201z" style="fill:#76b82a"/>
    </g>
    <g transform="translate(750 42.8)">
     <path d="m0 0h1.26l2.56-3.485-0.039 3.485h1.229v-5.446h-1.284l-2.536 3.447 0.031-3.447h-1.221z" style="fill:#76b82a"/>
    </g>
    <g transform="translate(759.5 38.42)">
     <path d="m0 0c0.677 0 1.051 0.288 1.051 0.832v1.65c0 0.544-0.374 0.824-1.051 0.824h-1.315v-3.306zm-2.552 4.38h2.552c1.416 0 2.287-0.7 2.287-1.805v-1.836c0-1.105-0.871-1.805-2.287-1.805h-2.552z" style="fill:#76b82a"/>
    </g>
    <g transform="translate(763.7 42.8)">
     <path d="m0 0h1.245v-3.649c0-0.544 0.451-0.84 1.167-0.84 0.723 0 1.175 0.296 1.175 0.84v3.649h1.236v-3.75c0-1.104-0.964-1.805-2.411-1.805-1.439 0-2.412 0.701-2.412 1.805z" style="fill:#76b82a"/>
    </g>
    <g transform="translate(771.7 37.35)">
     <path d="m0 0h-1.237v5.446h2.559c1.408 0 2.28-0.622 2.28-1.735v-0.28c0-0.701-0.451-1.276-1.292-1.494l1.517-1.937h-1.579l-1.478 1.937v0.809h0.552c0.677 0 1.043 0.241 1.043 0.77v0.102c0 0.529-0.366 0.754-1.043 0.754h-1.322z" style="fill:#76b82a"/>
    </g>
    <g transform="translate(778.8 39.48)">
     <path d="m0 0h1.501l-0.754 1.82zm-0.871-2.124h-1.362l2.412 5.446h1.143l2.428-5.446h-1.362l-0.466 1.12h-2.335z" style="fill:#76b82a"/>
    </g>
    <g transform="translate(783.9 42.8)">
     <path d="m0 0h1.26l2.56-3.485-0.039 3.485h1.229v-5.446h-1.283l-2.537 3.447 0.031-3.447h-1.221z" style="fill:#76b82a"/>
    </g>
    <g transform="translate(790.8 41.1)">
     <path d="m0 0c0 1.105 1.011 1.805 2.412 1.805 1.408 0 2.404-0.677 2.404-1.603v-0.529h-1.229v0.436c0 0.381-0.475 0.63-1.175 0.63-0.693 0-1.167-0.296-1.167-0.832v-1.86c0-0.544 0.474-0.832 1.167-0.832 0.7 0 1.175 0.249 1.175 0.63v0.482h1.229v-0.575c0-0.926-0.996-1.611-2.404-1.611-1.401 0-2.412 0.708-2.412 1.813z" style="fill:#76b82a"/>
    </g>
    <g transform="translate(797.5 42.8)">
     <path d="m0 0h4.131v-1.073h-2.894v-1.082h2.412v-1.058h-2.412v-1.167h2.964v-1.066h-4.201z" style="fill:#76b82a"/>
    </g>
    <g transform="translate(688.4 33.09)">
     <path d="m0 0c0 1.105 1.011 1.805 2.412 1.805 1.408 0 2.404-0.677 2.404-1.602v-0.529h-1.229v0.435c0 0.381-0.475 0.63-1.175 0.63-0.693 0-1.167-0.296-1.167-0.832v-1.86c0-0.544 0.474-0.832 1.167-0.832 0.7 0 1.175 0.249 1.175 0.63v0.482h1.229v-0.575c0-0.926-0.996-1.611-2.404-1.611-1.401 0-2.412 0.708-2.412 1.813z" style="fill:#042b60"/>
    </g>
    <g transform="translate(695 34.79)">
     <path d="m0 0h1.237v-2.116h2.365v2.116h1.237v-5.446h-1.237v2.264h-2.365v-2.264h-1.237z" style="fill:#042b60"/>
    </g>
    <g transform="translate(703.5 31.47)">
     <path d="m0 0h1.501l-0.754 1.82zm-0.871-2.124h-1.362l2.412 5.446h1.143l2.428-5.446h-1.362l-0.466 1.12h-2.334z" style="fill:#042b60"/>
    </g>
    <g transform="translate(708.6 34.79)">
     <path d="m0 0h1.019l1.93-2.871 1.929 2.871h1.019v-5.446h-1.237l0.039 2.988-1.105-1.658h-1.291l-1.113 1.665 0.039-2.995h-1.229z" style="fill:#042b60"/>
    </g>
    <g transform="translate(719 31.9)">
     <path d="m0 0c0.677 0 1.05 0.296 1.05 0.84v0.148c0 0.545-0.373 0.825-1.05 0.825h-1.315v-1.813zm-2.552 2.887h2.552c1.408 0 2.287-0.701 2.287-1.805v-0.335c0-1.105-0.879-1.805-2.287-1.805h-1.315v-1.502h-1.237z" style="fill:#042b60"/>
    </g>
    <path d="m723.1 34.79h1.237v-5.446h-1.237z" style="fill:#042b60"/>
    <g transform="translate(727.4 31.14)">
     <path d="m0 0c0-0.545 0.568-0.833 1.276-0.833 0.7 0 1.268 0.288 1.268 0.833v1.859c0 0.545-0.568 0.833-1.268 0.833-0.708 0-1.276-0.288-1.276-0.833zm-1.245 1.953c0 1.12 1.128 1.804 2.521 1.804 1.385 0 2.513-0.684 2.513-1.804v-2.046c0-1.121-1.128-1.813-2.513-1.813-1.393 0-2.521 0.692-2.521 1.813z" style="fill:#042b60"/>
    </g>
    <g transform="translate(733.1 34.79)">
     <path d="m0 0h1.26l2.56-3.485-0.039 3.485h1.229v-5.446h-1.283l-2.537 3.446 0.031-3.446h-1.221z" style="fill:#042b60"/>
    </g>
    <g transform="translate(740 31.24)">
     <path d="m0 0h1.221v-0.163c0-0.381 0.452-0.763 1.323-0.763 0.794 0 1.206 0.257 1.206 0.615v0.046c0 0.351-0.537 0.468-1.268 0.514-1.19 0.101-2.35 0.49-2.35 1.618v0.156c0 0.933 0.716 1.618 2.319 1.618 1.633 0 2.381-0.809 2.381-1.719v-0.257h-1.207v0.163c0 0.389-0.31 0.747-1.174 0.747-0.747 0-1.097-0.249-1.097-0.56v-0.046c0-0.444 0.591-0.53 1.307-0.576 1.105-0.093 2.31-0.459 2.31-1.556v-0.187c0-0.988-0.816-1.649-2.427-1.649-1.618 0-2.544 0.754-2.544 1.75z" style="fill:#042b60"/>
    </g>
    <g transform="translate(746.7 34.79)">
     <path d="m0 0h1.237v-2.116h2.365v2.116h1.237v-5.446h-1.237v2.264h-2.365v-2.264h-1.237z" style="fill:#042b60"/>
    </g>
    <path d="m753.5 34.79h1.237v-5.446h-1.237z" style="fill:#042b60"/>
    <g transform="translate(759.2 31.9)">
     <path d="m0 0c0.677 0 1.051 0.296 1.051 0.84v0.148c0 0.545-0.374 0.825-1.051 0.825h-1.315v-1.813zm-2.552 2.887h2.552c1.408 0 2.287-0.701 2.287-1.805v-0.335c0-1.105-0.879-1.805-2.287-1.805h-1.315v-1.502h-1.237z" style="fill:#042b60"/>
    </g>
   </g>
  </g>
 </g>
</svg>
