<?xml version="1.0" encoding="utf-8"?>
<!-- Generator: Adobe Illustrator 26.5.0, SVG Export Plug-In . SVG Version: 6.00 Build 0)  -->
<svg version="1.1" id="Layer_2_00000106143757653630333540000005397470000205127608_"
	 xmlns="http://www.w3.org/2000/svg" xmlns:xlink="http://www.w3.org/1999/xlink" x="0px" y="0px" viewBox="0 0 1012.1 198.9"
	 style="enable-background:new 0 0 1012.1 198.9;" xml:space="preserve">
<style type="text/css">
	.st0{fill:#1E1E1E;}
</style>
<g id="svg2512">
	<g id="layer1">
		<path id="path2451" class="st0" d="M22.6,0C10.2,0,0,9.6,0,21.7v114.4c0,34.6,30.4,62.7,68,62.7h37.3c37.3,0,68-28.2,68-62.7V93.4
			c0-11.4,9.5-20.3,21.9-20.3s21.9,8.9,21.9,20.3v42.8c0,34.6,30.3,62.7,68,62.7h39.2c37.3,0,68-28.2,68-62.7V60.6
			c1.7-9.6,10.8-17.1,22-17.1H603c13.2,0,22.3,5.8,22.3,17.2c0,9.6-8.8,16.8-22.3,16.8H483.9c-41.3,0-67.6,25.6-67.6,60.6
			s26.3,60.8,67.6,60.8H648c12.4,0,22.7-10,22.7-22.1s-10.2-21.4-22.7-21.4H483.9c-12.1,0-22.3-6.1-22.3-17.1s9.2-17.3,22.3-17.3
			H603c40.6,0,67.7-27.9,67.7-60.3C670.7,25.4,644,0,603,0H414.4c-36.9,0-67.7,28.2-67.7,62.7l0,72.4c0,11.1-9.9,20.3-22.3,20.3
			h-38.9c-12.8,0-23-9.3-23-20.3V93.4c0-34.6-30-62.7-67.3-62.7S128,58.5,128,93.4v41.7c0,11.1-10.2,20.3-23,20.3H68
			c-12.8,0-22.3-9.3-22.3-20.3V21.7C45.7,9.6,35.1,0,22.6,0z M755.4,0c-37.3,0-67.7,28.2-67.7,62.7v73.4c0,34.6,30.3,62.7,67.7,62.7
			h234c12.4,0,22.7-9.6,22.7-21.7s-10.2-21.8-22.7-21.8H755.8c-12.8,0-22.7-9.3-22.7-20.3V63.8c0-11,9.9-20.3,22.7-20.3h233.7
			c12.4,0,22.7-9.6,22.7-21.8S1001.8,0,989.4,0H755.4L755.4,0z"/>
	</g>
</g>
</svg>
