<?xml version="1.0" encoding="UTF-8"?>
<svg id="Layer_2" data-name="Layer 2" xmlns="http://www.w3.org/2000/svg" viewBox="0 0 1012.06 198.92">
  <defs>
    <style>
      .cls-1 {
        fill: #fff;
      }
    </style>
  </defs>
  <g id="svg2512">
    <g id="layer1">
      <path id="path2451" class="cls-1" d="M22.65,0C10.24,0,0,9.64,0,21.75v114.42c0,34.58,30.35,62.74,67.99,62.74h37.32c37.29,0,67.99-28.17,67.99-62.74v-42.75c0-11.41,9.5-20.33,21.94-20.33s21.94,8.92,21.94,20.33v42.75c0,34.58,30.33,62.74,67.99,62.74h39.23c37.29,0,68.03-28.17,68.03-62.74V60.64c1.67-9.59,10.77-17.14,21.98-17.14h188.64c13.16,0,22.31,5.8,22.31,17.21,0,9.61-8.78,16.8-22.31,16.8h-119.19c-41.32,0-67.62,25.61-67.62,60.57s26.3,60.83,67.62,60.83h164.19c12.43,0,22.65-9.96,22.65-22.09s-10.22-21.38-22.65-21.38h-164.19c-12.06,0-22.31-6.09-22.31-17.14s9.16-17.29,22.31-17.29h119.19c40.64,0,67.66-27.87,67.66-60.31,0-35.3-26.71-60.72-67.66-60.72h-188.64c-36.93,0-67.66,28.17-67.66,62.74l-.04,72.38c0,11.05-9.88,20.33-22.31,20.33h-38.85c-12.8,0-23.03-9.28-23.03-20.33v-41.7c0-34.58-30-62.74-67.28-62.74s-67.28,27.81-67.28,62.74v41.7c0,11.05-10.23,20.33-23.03,20.33h-36.94c-12.8,0-22.28-9.28-22.28-20.33V21.75C45.72,9.64,35.09,0,22.65,0ZM755.43,0c-37.3,0-67.66,28.17-67.66,62.74v73.43c0,34.58,30.35,62.74,67.66,62.74h233.98c12.43,0,22.65-9.6,22.65-21.71s-10.22-21.75-22.65-21.75h-233.65c-12.8,0-22.65-9.28-22.65-20.33V63.83c0-11.05,9.86-20.33,22.65-20.33h233.65c12.43,0,22.65-9.62,22.65-21.75s-10.22-21.75-22.65-21.75h-233.98Z"/>
    </g>
  </g>
</svg>