<svg xmlns="http://www.w3.org/2000/svg" viewBox="0 0 484 295.71"><defs><style>.cls-1{fill:#36454f;}.cls-2{fill:#fff;}</style></defs><g id="Layer_2" data-name="Layer 2"><g id="Layer_1-2" data-name="Layer 1"><rect class="cls-1" x="27" y="27" width="36" height="266"/><polygon class="cls-1" points="27 293 0 267 2 0 27 27 27 293"/><polygon class="cls-1" points="63 27 27 27 2 0 37 1 63 27"/><rect class="cls-1" x="142.01" y="15.08" width="36" height="118.92"/><polygon class="cls-1" points="142.01 134 115.01 122.38 117.01 3.01 142.01 15.08 142.01 134"/><polygon class="cls-1" points="178.01 15.08 142.01 15.08 117.01 3.01 152.01 3.46 178.01 15.08"/><rect class="cls-1" x="62.39" y="-14.36" width="36" height="120.74" transform="matrix(0, 1, -1, 0, 126.39, -34.38)"/><polygon class="cls-1" points="20.02 28 31.82 1 153.01 3 140.75 28 20.02 28"/><polygon class="cls-1" points="140.75 64 140.75 28 153.01 3 152.56 38 140.75 64"/><rect class="cls-1" x="79.66" y="34.31" width="36" height="160.69" transform="translate(-17 212.31) rotate(-90)"/><polygon class="cls-1" points="178 132.66 162.29 159.66 1 157.66 17.31 132.66 178 132.66"/><polygon class="cls-1" points="17.31 96.66 17.31 132.66 1 157.66 1.6 122.66 17.31 96.66"/><rect class="cls-1" x="97.44" y="117.05" width="36" height="179.24" transform="matrix(0.87, -0.5, 0.5, 0.87, -87.87, 85.41)"/><polygon class="cls-1" points="144.66 293.28 112.52 291.61 24.3 134.8 55.05 138.05 144.66 293.28"/><polygon class="cls-1" points="86.22 120.05 55.05 138.05 24.3 134.8 54.95 117.88 86.22 120.05"/><ellipse class="cls-1" cx="341.5" cy="149" rx="141" ry="142.5"/><path d="M341.5,7a138.81,138.81,0,0,1,99.34,41.59,143.06,143.06,0,0,1,0,200.82,139.43,139.43,0,0,1-198.68,0,143.06,143.06,0,0,1,0-200.82A138.81,138.81,0,0,1,341.5,7m0-1C263.35,6,200,70,200,149s63.35,143,141.5,143S483,228,483,149,419.65,6,341.5,6Z"/><path d="M343,7c32.29,0,62.66,14.7,85.51,41.39S464,110.68,464,148.5s-12.6,73.38-35.49,100.11S375.29,290,343,290s-62.66-14.7-85.51-41.39S222,186.32,222,148.5s12.6-73.38,35.49-100.11S310.71,7,343,7m0-1C275.62,6,221,69.8,221,148.5S275.62,291,343,291s122-63.8,122-142.5S410.38,6,343,6Z"/><path d="M340.5,6C392.61,6,435,70.15,435,149s-42.39,143-94.5,143S246,227.85,246,149,288.39,6,340.5,6m0-1C287.76,5,245,69.47,245,149s42.76,144,95.5,144S436,228.53,436,149,393.24,5,340.5,5Z"/><path d="M343,6c42.46,0,77,64.15,77,143s-34.54,143-77,143-77-64.15-77-143S300.54,6,343,6m0-1c-43.08,0-78,64.47-78,144s34.92,144,78,144,78-64.47,78-144S386.08,5,343,5Z"/><path d="M340.5,6C374.41,6,402,70.15,402,149s-27.59,143-61.5,143S279,227.85,279,149,306.59,6,340.5,6m0-1C306,5,278,69.47,278,149s28,144,62.5,144S403,228.53,403,149,375,5,340.5,5Z"/><path d="M340.5,7C353.8,7,366.4,21.59,376,48.08c9.68,26.81,15,62.47,15,100.42s-5.34,73.61-15,100.42C366.4,275.41,353.8,290,340.5,290S314.6,275.41,305,248.92c-9.68-26.81-15-62.47-15-100.42s5.34-73.61,15-100.42C314.6,21.59,327.2,7,340.5,7m0-1C312.06,6,289,69.8,289,148.5S312.06,291,340.5,291,392,227.2,392,148.5,368.94,6,340.5,6Z"/><path d="M340.5,7c9.11,0,18.17,15.1,24.84,41.42C372.21,75.54,376,111.62,376,150s-3.79,74.46-10.66,101.58C358.67,277.9,349.61,293,340.5,293s-18.17-15.1-24.84-41.42C308.79,224.46,305,188.38,305,150s3.79-74.46,10.66-101.58C322.33,22.1,331.39,7,340.5,7m0-1C320.34,6,304,70.47,304,150s16.34,144,36.5,144S377,229.53,377,150,360.66,6,340.5,6Z"/><path d="M341.5,20c37.54,0,72.84,13.48,99.38,38S482,114.92,482,149.5,467.4,216.59,440.88,241,379,279,341.5,279s-72.84-13.48-99.38-38S201,184.08,201,149.5,215.6,82.41,242.12,58,304,20,341.5,20m0-1C263.35,19,200,77.43,200,149.5S263.35,280,341.5,280,483,221.57,483,149.5,419.65,19,341.5,19Z"/><path d="M342.5,34c37.56,0,72.87,12.09,99.42,34s41.08,51,41.08,82-14.59,60.06-41.08,82-61.86,34-99.42,34-72.87-12.09-99.42-34S202,181,202,150s14.59-60.06,41.08-82,61.86-34,99.42-34m0-1C264.35,33,201,85.38,201,150s63.35,117,141.5,117S484,214.62,484,150,420.65,33,342.5,33Z"/><path d="M341.5,50C419,50,482,95.53,482,151.5S419,253,341.5,253,201,207.47,201,151.5,264,50,341.5,50m0-1C263.35,49,200,94.89,200,151.5S263.35,254,341.5,254,483,208.11,483,151.5,419.65,49,341.5,49Z"/><path d="M342.5,63C420,63,483,101.36,483,148.5S420,234,342.5,234,202,195.64,202,148.5,265,63,342.5,63m0-1C264.35,62,201,100.73,201,148.5S264.35,235,342.5,235,484,196.27,484,148.5,420.65,62,342.5,62Z"/><path d="M342.5,78C420,78,483,107.83,483,144.5S420,211,342.5,211,202,181.17,202,144.5,265,78,342.5,78m0-1C264.35,77,201,107.22,201,144.5S264.35,212,342.5,212,484,181.78,484,144.5,420.65,77,342.5,77Z"/><path d="M341.5,94c37.68,0,73.09,5.34,99.71,15C467.52,118.6,482,131.2,482,144.5S467.52,170.4,441.21,180c-26.62,9.68-62,15-99.71,15s-73.09-5.34-99.71-15C215.48,170.4,201,157.8,201,144.5s14.48-25.9,40.79-35.48c26.62-9.68,62-15,99.71-15m0-1C263.35,93,200,116.06,200,144.5S263.35,196,341.5,196,483,172.94,483,144.5,419.65,93,341.5,93Z"/><path d="M341.5,109c37.72,0,73.17,3.53,99.82,9.93C467.17,125.14,482,133.55,482,142s-14.83,16.86-40.68,23.07c-26.65,6.4-62.1,9.93-99.82,9.93s-73.17-3.53-99.82-9.93C215.83,158.86,201,150.45,201,142s14.83-16.86,40.68-23.07c26.65-6.4,62.1-9.93,99.82-9.93m0-1C263.35,108,200,123.22,200,142s63.35,34,141.5,34S483,160.78,483,142s-63.35-34-141.5-34Z"/><path d="M342.5,125c37.76,0,73.25,1.82,99.93,5.12C481,134.89,483,140.44,483,141.5s-2,6.61-40.57,11.38c-26.68,3.3-62.17,5.12-99.93,5.12s-73.25-1.82-99.93-5.12C204,148.11,202,142.56,202,141.5s2-6.61,40.57-11.38c26.68-3.3,62.17-5.12,99.93-5.12m0-1c-78.15,0-141.5,7.84-141.5,17.5S264.35,159,342.5,159,484,151.16,484,141.5,420.65,124,342.5,124Z"/><path d="M341,7c1.94,0,8.71,3,14.57,41,4.15,27,6.43,62.81,6.43,101s-2.28,74-6.43,101C349.71,288,342.94,291,341,291s-8.71-3-14.57-41c-4.15-27-6.43-62.81-6.43-101s2.28-74,6.43-101C332.29,10,339.06,7,341,7m0-1c-12.15,0-22,64-22,143s9.85,143,22,143,22-64,22-143S353.15,6,341,6Z"/><rect x="108.57" y="159.78" width="36.91" height="133.31" transform="translate(-96.2 93.85) rotate(-30)"/><polygon points="145.12 293.56 115.18 295.71 49.62 178.15 78.08 177.43 145.12 293.56"/><rect class="cls-2" x="126.35" y="239.82" width="10.17" height="37.38" transform="translate(-111.65 100.35) rotate(-30)"/><rect class="cls-2" x="98.85" y="191.63" width="10.17" height="37.38" transform="translate(-91.23 80.15) rotate(-30)"/></g></g></svg>